<?xml version="1.0" encoding="utf-8"?>
<svg version="1.1" id="Layer_1" xmlns="http://www.w3.org/2000/svg" xmlns:xlink="http://www.w3.org/1999/xlink" x="0px" y="0px"
	 viewBox="-21 224 676 164" style="enable-background:new -21 224 676 164;" xml:space="preserve">
<g>
	<path style="fill:#F04E23;" d="M135.6,307.1c0,41.5-33.6,75.1-75.1,75.1s-75.1-33.6-75.1-75.1S19,232,60.5,232
		C101.9,231.9,135.6,265.6,135.6,307.1"/>
	<path style="fill:#FFFFFF;" d="M90.6,340.9h19.7c0,0,1-0.2,1-1c0-0.8,0-10.4,0-10.4s-0.1-1-0.9-1c-0.8,0-9.9,0.1-10.3,0
		c-0.4-0.1-0.8-0.2-1.1-0.6s-28.2-56.2-28.2-56.2l-15-5c0,0-1.1-0.3-1.4,1c-0.3,1.3-20.8,63-20.8,63s-0.3,0.8-1.1,0.9
		c-0.8,0.1-25.8,0.1-25.8,0.1s-1,0.1-1,1.5c0,1.4,0.1,6.7,0.1,6.7s0.1,1,1.2,1s40,0,40.4,0c0.4-0.1,0.3-0.1,0.5-0.2
		c0.2-0.2,16.5-50.5,16.6-50.7s0.4-0.7,0.7,0.1C65.4,290.7,90.6,340.9,90.6,340.9"/>
	<path style="fill:#FFFFFF;" d="M197.9,340.9V340l28.7-68.2H247c0,0,4.9-0.1,7.2,5.7c1,2.6,24.8,62.5,24.8,62.5v0.8h-27.5l-4.7-12.5
		l-14,0.2c0,0-4.5,0.5-6.6-4.4c-1.2-2.7-2.4-6.9-2.4-6.9h19l-9.1-26.3l-18.5,49.9L197.9,340.9"/>
	<path style="fill:#FFFFFF;" d="M265.9,271.7v1.3l26.9,67.8h25.4l28.6-68.1v-1h-17l-18.3,49.8l-16.7-46c0,0-1.2-3.9-6.2-3.9
		C285.5,271.7,265.9,271.7,265.9,271.7"/>
	<path style="fill:#FFFFFF;" d="M354.2,271.7v69.2H408l4.7-10.6v-0.9h-33.3v-18h29.5v-11.3h-29.5V283h29.4v-1l-2.9-6.1
		c0,0-1.5-4.1-6.2-4.1C396.4,271.7,354.2,271.7,354.2,271.7"/>
	<path style="fill:#FFFFFF;" d="M420.3,271.7l-0.1,69.1h16.1v-35.5l44.2,35.4h15.3v-65c0,0,0.3-4.2-4.3-4.2c-3,0-12,0-12,0v36.7
		l-44.8-36.7h-14.4"/>
	<path style="fill:#FFFFFF;" d="M507.5,271.7v69.1h48.2l4.7-10.7v-0.7h-27.9v-52.5c0,0,0.7-5.1-4.2-5.1
		C526.2,271.7,507.5,271.7,507.5,271.7"/>
	<path style="fill:#FFFFFF;" d="M562.5,340.9v-1.2l28.6-68h20.7c0,0,4.6-0.3,6.9,5.4c1.1,2.7,24.8,62.6,24.8,62.6v1.1H616l-4.8-12.8
		l-14,0.2c0,0-4.5,0.5-6.6-4.4c-1.2-2.7-2.4-6.9-2.4-6.9h19l-9.1-26.3l-18.6,50.2L562.5,340.9"/>
</g>
</svg>
